<svg width="2214" height="595" xmlns="http://www.w3.org/2000/svg" xmlns:xlink="http://www.w3.org/1999/xlink" overflow="hidden"><defs><clipPath id="clip0"><rect x="651" y="1154" width="2214" height="595"/></clipPath></defs><g clip-path="url(#clip0)" transform="translate(-651 -1154)"><path d="M2660.52 1463.19 2660.52 1574.56C2669.31 1576.14 2677.37 1576.92 2684.72 1576.92 2702.69 1576.92 2716.24 1572.1 2725.35 1562.46 2734.47 1552.82 2739.03 1537.9 2739.03 1517.69 2739.03 1496.97 2733.85 1482.7 2723.48 1474.9 2713.12 1467.09 2695.48 1463.19 2670.55 1463.19ZM2378.76 1399.46 2338.52 1492.11 2377.5 1492.31C2386.82 1492.31 2400.21 1492.24 2417.67 1492.11ZM1599.62 1345.12C1593.83 1345.12 1586.33 1345.58 1577.12 1346.5L1577.32 1449.41C1583.9 1449.68 1588.77 1449.81 1591.92 1449.81 1610.34 1449.81 1623.93 1445.44 1632.68 1436.72 1641.42 1428 1645.8 1414.71 1645.8 1396.87 1645.8 1380.08 1641.65 1367.26 1633.37 1358.4 1625.08 1349.55 1613.83 1345.12 1599.62 1345.12ZM2684.33 1341.97C2677.9 1341.97 2669.96 1342.63 2660.52 1343.94L2660.52 1442.72 2670.35 1442.72C2691.87 1442.72 2707.48 1438.2 2717.19 1429.14 2726.9 1420.09 2731.75 1406.71 2731.75 1389 2731.75 1373.65 2727.72 1361.98 2719.65 1353.98 2711.58 1345.97 2699.81 1341.97 2684.33 1341.97ZM2557.6 1320.52C2589.48 1321.97 2616.37 1322.69 2638.28 1322.69 2646.81 1322.69 2660.78 1322.43 2680.19 1321.9 2689.38 1321.64 2697.84 1321.51 2705.58 1321.51 2733.39 1321.51 2753.46 1325.64 2765.79 1333.9 2782.06 1344.66 2790.19 1360.47 2790.19 1381.33 2790.19 1399.43 2784.03 1414.58 2771.69 1426.78 2762.51 1436.1 2748.48 1443.71 2729.58 1449.61 2746.38 1450.92 2759.89 1453.91 2770.12 1458.56 2780.35 1463.22 2788.32 1470.27 2794.03 1479.72 2799.74 1489.16 2802.59 1500.25 2802.59 1512.97 2802.59 1528.58 2798.16 1543.14 2789.31 1556.66 2780.45 1570.17 2767.17 1580.6 2749.46 1587.94 2731.75 1595.29 2708.99 1598.96 2681.18 1598.96 2673.7 1598.96 2664.25 1598.77 2652.84 1598.37 2638.15 1597.72 2628.11 1597.39 2622.73 1597.39 2612.76 1597.39 2591.05 1598.18 2557.6 1599.75L2557.6 1585.19 2590.46 1578.11C2593.35 1577.19 2595.51 1576.01 2596.96 1574.56 2598.4 1573.12 2599.51 1571.15 2600.3 1568.66 2601.35 1564.59 2601.96 1553.11 2602.14 1534.22 2602.49 1501.17 2602.66 1470.4 2602.66 1441.94 2602.66 1426.06 2602.27 1401.14 2601.48 1367.16 2601.22 1357.06 2600.04 1350.3 2597.94 1346.89 2596.76 1345.06 2594.73 1343.55 2591.84 1342.37 2590.66 1341.84 2579.25 1339.41 2557.6 1335.09ZM1974.59 1320.52C2008.13 1321.97 2034.26 1322.69 2053 1322.69 2072.13 1322.69 2097.61 1321.97 2129.45 1320.52L2129.45 1335.09C2102.42 1339.15 2087.73 1341.78 2085.37 1342.96 2081.44 1345.19 2079.47 1350.89 2079.47 1360.08L2078.68 1410.65 2078.68 1574.37 2150.49 1574.37C2162.33 1574.37 2170.22 1573.58 2174.16 1572.01 2179.55 1569.78 2184.75 1565.77 2189.75 1560 2194.75 1554.23 2203.56 1540.85 2216.18 1519.86L2233.94 1519.86C2225.15 1544.13 2216.56 1570.76 2208.16 1599.75 2152.41 1598.31 2106.03 1597.59 2069.04 1597.59 2038.73 1597.59 2007.25 1598.31 1974.59 1599.75L1974.59 1585.19C1997.83 1580.6 2010.63 1577.45 2012.98 1575.74 2015.33 1574.04 2016.8 1570.86 2017.39 1566.2 2017.98 1561.54 2018.27 1530.09 2018.27 1471.85L2018.07 1400.22 2018.07 1387.62C2018.07 1366.64 2017.35 1354.04 2015.92 1349.84 2014.87 1346.7 2013.08 1344.5 2010.53 1343.25 2007.99 1342.01 1996 1339.28 1974.59 1335.09ZM1475.19 1320.52C1519.57 1321.97 1545.76 1322.69 1553.77 1322.69 1562.31 1322.69 1574.65 1322.46 1590.8 1322 1606.95 1321.54 1618.83 1321.31 1626.45 1321.31 1646.01 1321.31 1661.24 1323.8 1672.14 1328.79 1683.03 1333.77 1691.8 1341.71 1698.43 1352.6 1705.06 1363.49 1708.37 1375.62 1708.37 1389 1708.37 1400.42 1706.01 1411.4 1701.29 1421.96 1696.57 1432.52 1690.27 1441.48 1682.4 1448.82 1677.28 1453.68 1669.08 1458.92 1657.8 1464.56 1666.72 1479.91 1679.77 1501.62 1696.96 1529.7 1709.54 1550.29 1717.76 1562.63 1721.61 1566.69 1725.47 1570.76 1729.62 1573.91 1734.07 1576.14 1740.87 1579.29 1753.3 1582.3 1771.34 1585.19L1771.34 1599.75C1749.07 1598.31 1730.92 1597.59 1716.9 1597.59 1702.09 1597.59 1683.88 1598.31 1662.26 1599.75 1646.27 1562.89 1625.76 1520.71 1600.74 1473.22 1593.19 1472.96 1585.32 1472.44 1577.12 1471.65L1577.91 1553.51C1578.17 1563.61 1579.02 1569.87 1580.47 1572.3 1581.91 1574.73 1583.94 1576.47 1586.57 1577.52 1588.4 1578.43 1600.15 1580.99 1621.79 1585.19L1621.79 1599.75C1591.18 1598.31 1566.62 1597.59 1548.1 1597.59 1529.84 1597.59 1505.54 1598.31 1475.19 1599.75L1475.19 1585.19C1497.39 1581.12 1509.89 1577.97 1512.7 1575.74 1515.51 1573.51 1517.31 1569.12 1518.09 1562.56 1518.48 1559.02 1518.75 1525.37 1518.88 1461.61L1518.7 1402.97C1518.7 1375.42 1518.23 1358.83 1517.3 1353.19 1516.52 1349.12 1514.71 1346.07 1511.89 1344.04 1509.07 1342.01 1499.79 1339.61 1484.05 1336.86L1475.19 1335.09ZM1173.05 1320.52C1204.79 1321.97 1229.65 1322.69 1247.63 1322.69 1266.91 1322.69 1290.59 1321.97 1318.66 1320.52L1318.66 1335.09C1302.83 1337.83 1293.48 1340.25 1290.6 1342.34 1288.38 1343.91 1287.26 1345.93 1287.26 1348.41 1287.26 1351.3 1287.99 1354.11 1289.43 1356.86 1293.11 1363.67 1307.03 1385.74 1331.2 1423.06 1368.23 1376.99 1386.75 1351.21 1386.75 1345.71 1386.75 1344.14 1385.93 1342.83 1384.29 1341.78 1382.65 1340.73 1372.84 1338.5 1354.87 1335.09L1354.87 1320.52C1381.63 1321.97 1399.73 1322.69 1409.18 1322.69 1415.74 1322.69 1433.32 1321.97 1461.92 1320.52L1461.92 1335.09C1449.2 1337.19 1440.16 1339.59 1434.78 1342.28 1429.41 1344.97 1424.56 1348.49 1420.23 1352.82 1418.53 1354.66 1404.42 1371.37 1377.91 1402.97 1362.42 1421.46 1351.34 1435.23 1344.64 1444.27 1363.04 1473.91 1385.37 1508.53 1411.65 1548.13 1420.42 1561.27 1427.39 1569.62 1432.57 1573.16 1437.74 1576.71 1449.09 1580.72 1466.64 1585.19L1466.64 1599.75C1440.27 1598.31 1415.74 1597.59 1393.04 1597.59 1370.61 1597.59 1348.05 1598.31 1325.35 1599.75L1325.35 1585.19C1339.78 1582.17 1348.51 1579.55 1351.52 1577.32 1353.62 1575.74 1354.67 1573.97 1354.67 1572.01 1354.67 1570.17 1353.95 1567.91 1352.5 1565.22 1351.06 1562.54 1335.69 1537.94 1306.39 1491.43 1290.93 1509.5 1272.59 1532.95 1251.36 1561.77 1247.43 1567.02 1245.46 1570.76 1245.46 1572.99 1245.46 1575.09 1246.44 1576.79 1248.41 1578.11 1251.3 1579.94 1261.47 1582.3 1278.91 1585.19L1278.91 1599.75C1256.09 1598.31 1237.2 1597.59 1222.24 1597.59 1206.37 1597.59 1188.2 1598.31 1167.73 1599.75L1167.73 1585.19C1182.3 1583.09 1191.54 1581.12 1195.48 1579.29 1201.25 1576.53 1207.55 1571.61 1214.37 1564.53 1225.93 1552.71 1252.13 1521.19 1292.97 1469.96 1254.88 1409.29 1231.7 1373.31 1223.42 1362.04 1218.04 1354.96 1212.63 1349.81 1207.19 1346.6 1201.74 1343.38 1190.36 1339.55 1173.05 1335.09ZM1010.77 1320.52C1044.53 1321.97 1069.81 1322.69 1086.63 1322.69 1104.62 1322.69 1128.79 1321.97 1159.14 1320.52L1159.14 1335.09 1151.86 1336.07C1134.41 1338.17 1123.95 1340.79 1120.47 1343.94 1116.99 1347.09 1115.25 1353.19 1115.25 1362.24L1115.25 1369.32 1114.86 1435.24 1115.06 1510.61 1115.25 1548.98C1115.25 1560.26 1115.81 1567.35 1116.93 1570.23 1118.04 1573.12 1119.98 1575.28 1122.73 1576.73 1127.45 1579.22 1137.16 1581.65 1151.86 1584.01 1153.43 1584.27 1155.86 1584.66 1159.14 1585.19L1159.14 1599.75C1132.24 1598.31 1108.56 1597.59 1088.1 1597.59 1068.68 1597.59 1042.97 1598.31 1010.96 1599.75L1010.96 1585.19C1031.34 1581.39 1042.5 1579.09 1044.46 1578.3 1047.46 1577.12 1049.75 1575.42 1051.32 1573.19 1053.28 1570.17 1054.32 1564 1054.45 1554.69 1054.71 1532.91 1054.84 1495.85 1054.84 1443.51L1054.25 1371.88 1054.25 1365.98C1054.25 1355.48 1052.75 1348.73 1049.73 1345.71 1046.71 1342.69 1036.54 1339.74 1019.23 1336.86 1017.26 1336.46 1014.44 1335.87 1010.77 1335.09ZM854.766 1320.52C888.526 1321.97 913.812 1322.69 930.627 1322.69 948.622 1322.69 972.791 1321.97 1003.14 1320.52L1003.14 1335.09 995.855 1336.07C978.408 1338.17 967.946 1340.79 964.469 1343.94 960.993 1347.09 959.255 1353.19 959.255 1362.24L959.255 1369.32 958.861 1435.24 959.058 1510.61 959.255 1548.98C959.255 1560.26 959.812 1567.35 960.927 1570.23 962.042 1573.12 963.977 1575.28 966.732 1576.73 971.455 1579.22 981.163 1581.65 995.855 1584.01 997.43 1584.27 999.856 1584.66 1003.14 1585.19L1003.14 1599.75C976.243 1598.31 952.564 1597.59 932.099 1597.59 912.684 1597.59 886.972 1598.31 854.963 1599.75L854.963 1585.19C875.335 1581.39 886.501 1579.09 888.461 1578.3 891.464 1577.12 893.749 1575.42 895.318 1573.19 897.275 1570.17 898.319 1564 898.451 1554.69 898.713 1532.91 898.844 1495.85 898.844 1443.51L898.254 1371.88 898.254 1365.98C898.254 1355.48 896.745 1348.73 893.728 1345.71 890.711 1342.69 880.544 1339.74 863.227 1336.86 861.26 1336.46 858.439 1335.87 854.766 1335.09ZM699.766 1320.52C733.526 1321.97 758.813 1322.69 775.627 1322.69 793.622 1322.69 817.791 1321.97 848.136 1320.52L848.136 1335.09 840.855 1336.07C823.408 1338.17 812.946 1340.79 809.469 1343.94 805.993 1347.09 804.255 1353.19 804.255 1362.24L804.255 1369.32 803.861 1435.24 804.058 1510.61 804.255 1548.98C804.255 1560.26 804.812 1567.35 805.927 1570.23 807.042 1573.12 808.977 1575.28 811.732 1576.73 816.455 1579.22 826.163 1581.65 840.855 1584.01 842.43 1584.27 844.857 1584.66 848.136 1585.19L848.136 1599.75C821.243 1598.31 797.564 1597.59 777.1 1597.59 757.684 1597.59 731.972 1598.31 699.963 1599.75L699.963 1585.19C720.335 1581.39 731.501 1579.09 733.461 1578.3 736.464 1577.12 738.749 1575.42 740.318 1573.19 742.275 1570.17 743.319 1564 743.451 1554.69 743.713 1532.91 743.844 1495.85 743.844 1443.51L743.254 1371.88 743.254 1365.98C743.254 1355.48 741.745 1348.73 738.728 1345.71 735.711 1342.69 725.544 1339.74 708.227 1336.86 706.26 1336.46 703.439 1335.87 699.766 1335.09ZM2389.2 1314.62 2404.94 1314.62C2417.14 1345.44 2442.4 1402.96 2480.7 1487.16 2501.95 1533.99 2514.68 1560.61 2518.88 1567.04 2521.76 1571.51 2524.65 1574.67 2527.53 1576.51 2530.42 1578.35 2539.54 1581.24 2554.89 1585.19L2554.89 1599.75C2531.67 1598.31 2510.09 1597.59 2490.15 1597.59 2470.47 1597.59 2445.87 1598.31 2416.36 1599.75L2416.36 1585.19C2432.23 1582.3 2441.41 1579.93 2443.9 1578.09 2446.39 1576.25 2447.63 1573.75 2447.63 1570.59 2447.63 1568.75 2447.24 1566.64 2446.45 1564.28 2444.36 1558.75 2437.55 1542.17 2426.03 1514.55 2407.57 1514.15 2392.19 1513.96 2379.88 1513.96 2369.8 1513.96 2352.98 1514.15 2329.41 1514.55 2314.7 1549.01 2307.34 1567.89 2307.34 1571.18 2307.34 1574.34 2308.39 1576.67 2310.49 1578.19 2312.59 1579.7 2321.9 1582.03 2338.43 1585.19L2338.43 1599.75C2321.9 1598.31 2306.09 1597.59 2291.01 1597.59 2274.74 1597.59 2258.21 1598.31 2241.42 1599.75L2241.42 1585.19C2253.23 1582.69 2261.36 1579.86 2265.82 1576.7 2268.84 1574.6 2271.59 1571.44 2274.09 1567.23 2279.21 1558.97 2294.52 1526.97 2320.01 1471.22 2336.18 1435.94 2359.24 1383.74 2389.2 1314.62Z" stroke="#4472C4" stroke-width="5" stroke-linejoin="round" stroke-miterlimit="10" fill="#4472C4" fill-rule="evenodd"/><text fill="#000000" fill-opacity="0" font-family="Arial,Arial_MSFontService,sans-serif" font-size="285.13" x="699.766" y="1564.11">IIIXR  LAB</text></g></svg>