<svg width="2215" height="596" xmlns="http://www.w3.org/2000/svg" xmlns:xlink="http://www.w3.org/1999/xlink" overflow="hidden"><defs><clipPath id="clip0"><rect x="1652" y="1736" width="2215" height="596"/></clipPath></defs><g clip-path="url(#clip0)" transform="translate(-1652 -1736)"><path d="M3611.02 2045.29 3611.02 2156.67C3619.81 2158.24 3627.88 2159.03 3635.23 2159.03 3653.2 2159.03 3666.74 2154.21 3675.86 2144.57 3684.98 2134.92 3689.54 2120 3689.54 2099.8 3689.54 2079.07 3684.35 2064.81 3673.99 2057 3663.63 2049.19 3645.98 2045.29 3621.06 2045.29ZM3329.26 1981.56 3289.03 2074.22 3328.01 2074.41C3337.33 2074.41 3350.72 2074.35 3368.17 2074.22ZM2652.13 1927.23C2646.34 1927.23 2638.84 1927.68 2629.63 1928.6L2629.83 2031.52C2636.4 2031.78 2641.27 2031.91 2644.43 2031.91 2662.85 2031.91 2676.43 2027.55 2685.18 2018.82 2693.93 2010.1 2698.3 1996.82 2698.3 1978.98 2698.3 1962.19 2694.16 1949.36 2685.87 1940.51 2677.58 1931.65 2666.34 1927.23 2652.13 1927.23ZM3634.83 1924.08C3628.4 1924.08 3620.47 1924.73 3611.02 1926.04L3611.02 2024.83 3620.86 2024.83C3642.38 2024.83 3657.99 2020.3 3667.69 2011.25 3677.4 2002.2 3682.26 1988.82 3682.26 1971.11 3682.26 1955.76 3678.22 1944.08 3670.15 1936.08 3662.09 1928.08 3650.31 1924.08 3634.83 1924.08ZM3508.11 1902.63C3539.99 1904.07 3566.88 1904.79 3588.79 1904.79 3597.31 1904.79 3611.29 1904.53 3630.7 1904.01 3639.88 1903.74 3648.34 1903.61 3656.08 1903.61 3683.9 1903.61 3703.97 1907.74 3716.3 1916.01 3732.57 1926.77 3740.7 1942.57 3740.7 1963.43 3740.7 1981.54 3734.53 1996.69 3722.2 2008.89 3713.02 2018.2 3698.98 2025.81 3680.09 2031.71 3696.88 2033.03 3710.4 2036.01 3720.63 2040.67 3730.86 2045.32 3738.83 2052.38 3744.54 2061.82 3750.24 2071.27 3753.1 2082.35 3753.1 2095.08 3753.1 2110.69 3748.67 2125.25 3739.81 2138.76 3730.96 2152.27 3717.68 2162.7 3699.97 2170.05 3682.26 2177.39 3659.5 2181.07 3631.68 2181.07 3624.21 2181.07 3614.76 2180.87 3603.35 2180.48 3588.66 2179.82 3578.62 2179.49 3573.24 2179.49 3563.27 2179.49 3541.56 2180.28 3508.11 2181.85L3508.11 2167.29 3540.97 2160.21C3543.86 2159.29 3546.02 2158.11 3547.46 2156.67 3548.91 2155.22 3550.02 2153.26 3550.81 2150.76 3551.86 2146.7 3552.47 2135.22 3552.64 2116.33 3552.99 2083.27 3553.17 2052.51 3553.17 2024.04 3553.17 2008.17 3552.78 1983.24 3551.99 1949.26 3551.73 1939.16 3550.55 1932.41 3548.45 1929 3547.27 1927.16 3545.23 1925.65 3542.35 1924.47 3541.17 1923.95 3529.75 1921.52 3508.11 1917.19ZM2924.09 1902.63C2957.63 1904.07 2983.77 1904.79 3002.51 1904.79 3021.64 1904.79 3047.12 1904.07 3078.96 1902.63L3078.96 1917.19C3051.93 1921.26 3037.24 1923.88 3034.88 1925.06 3030.94 1927.29 3028.97 1933 3028.97 1942.18L3028.19 1992.75 3028.19 2156.47 3100 2156.47C3111.83 2156.47 3119.72 2155.68 3123.67 2154.11 3129.06 2151.88 3134.26 2147.88 3139.25 2142.11 3144.25 2136.33 3153.06 2122.95 3165.69 2101.96L3183.44 2101.96C3174.66 2126.23 3166.06 2152.86 3157.67 2181.85 3101.91 2180.41 3055.54 2179.69 3018.55 2179.69 2988.24 2179.69 2956.76 2180.41 2924.09 2181.85L2924.09 2167.29C2947.34 2162.7 2960.14 2159.55 2962.49 2157.85 2964.84 2156.14 2966.31 2152.96 2966.9 2148.3 2967.48 2143.65 2967.78 2112.2 2967.78 2053.95L2967.58 1982.32 2967.58 1969.73C2967.58 1948.74 2966.86 1936.15 2965.42 1931.95 2964.38 1928.8 2962.58 1926.6 2960.04 1925.36 2957.49 1924.11 2945.51 1921.39 2924.09 1917.19ZM2527.7 1902.63C2572.08 1904.07 2598.27 1904.79 2606.28 1904.79 2614.81 1904.79 2627.15 1904.56 2643.3 1904.1 2659.45 1903.64 2671.34 1903.42 2678.95 1903.42 2698.52 1903.42 2713.75 1905.91 2724.64 1910.89 2735.54 1915.88 2744.3 1923.81 2750.93 1934.7 2757.56 1945.59 2760.88 1957.73 2760.88 1971.11 2760.88 1982.52 2758.52 1993.51 2753.8 2004.07 2749.07 2014.63 2742.78 2023.58 2734.91 2030.93 2729.79 2035.78 2721.59 2041.03 2710.31 2046.67 2719.23 2062.02 2732.28 2083.73 2749.47 2111.8 2762.04 2132.4 2770.26 2144.73 2774.12 2148.8 2777.98 2152.86 2782.13 2156.01 2786.58 2158.24 2793.38 2161.39 2805.8 2164.41 2823.85 2167.29L2823.85 2181.85C2801.57 2180.41 2783.43 2179.69 2769.4 2179.69 2754.6 2179.69 2736.38 2180.41 2714.76 2181.85 2698.78 2144.99 2678.27 2102.82 2653.24 2055.33 2645.7 2055.06 2637.83 2054.54 2629.63 2053.75L2630.42 2135.61C2630.68 2145.71 2631.53 2151.98 2632.97 2154.4 2634.42 2156.83 2636.45 2158.57 2639.07 2159.62 2640.91 2160.54 2652.65 2163.1 2674.3 2167.29L2674.3 2181.85C2643.69 2180.41 2619.13 2179.69 2600.6 2179.69 2582.35 2179.69 2558.04 2180.41 2527.7 2181.85L2527.7 2167.29C2549.9 2163.23 2562.4 2160.08 2565.21 2157.85 2568.02 2155.62 2569.81 2151.22 2570.6 2144.66 2570.99 2141.12 2571.25 2107.47 2571.38 2043.72L2571.21 1985.08C2571.21 1957.53 2570.74 1940.93 2569.81 1935.29 2569.02 1931.23 2567.22 1928.18 2564.4 1926.14 2561.58 1924.11 2552.3 1921.72 2536.55 1918.96L2527.7 1917.19ZM2225.55 1902.63C2257.3 1904.07 2282.16 1904.79 2300.13 1904.79 2319.42 1904.79 2343.1 1904.07 2371.17 1902.63L2371.17 1917.19C2355.34 1919.93 2345.98 1922.35 2343.11 1924.44 2340.88 1926.01 2339.77 1928.04 2339.77 1930.52 2339.77 1933.4 2340.49 1936.22 2341.94 1938.96 2345.62 1945.78 2359.54 1967.84 2383.71 2005.17 2420.74 1959.1 2439.25 1933.31 2439.25 1927.82 2439.25 1926.24 2438.43 1924.93 2436.79 1923.88 2435.15 1922.83 2425.35 1920.6 2407.38 1917.19L2407.38 1902.63C2434.14 1904.07 2452.24 1904.79 2461.69 1904.79 2468.25 1904.79 2485.82 1904.07 2514.42 1902.63L2514.42 1917.19C2501.71 1919.29 2492.66 1921.69 2487.29 1924.38 2481.91 1927.08 2477.06 1930.59 2472.74 1934.93 2471.03 1936.76 2456.93 1953.48 2430.42 1985.08 2414.93 2003.56 2403.84 2017.33 2397.15 2026.38 2415.54 2056.01 2437.88 2090.63 2464.16 2130.23 2472.93 2143.37 2479.9 2151.72 2485.07 2155.27 2490.24 2158.82 2501.6 2162.82 2519.15 2167.29L2519.15 2181.85C2492.78 2180.41 2468.25 2179.69 2445.55 2179.69 2423.12 2179.69 2400.55 2180.41 2377.86 2181.85L2377.86 2167.29C2392.29 2164.28 2401.01 2161.65 2404.03 2159.42 2406.13 2157.85 2407.18 2156.08 2407.18 2154.11 2407.18 2152.27 2406.46 2150.01 2405.01 2147.33 2403.57 2144.64 2388.19 2120.04 2358.89 2073.53 2343.44 2091.61 2325.09 2115.06 2303.87 2143.88 2299.94 2149.12 2297.97 2152.86 2297.97 2155.09 2297.97 2157.19 2298.95 2158.9 2300.92 2160.21 2303.81 2162.05 2313.97 2164.41 2331.42 2167.29L2331.42 2181.85C2308.59 2180.41 2289.7 2179.69 2274.75 2179.69 2258.87 2179.69 2240.71 2180.41 2220.24 2181.85L2220.24 2167.29C2234.8 2165.19 2244.05 2163.23 2247.99 2161.39 2253.76 2158.64 2260.06 2153.72 2266.88 2146.63 2278.43 2134.81 2304.63 2103.29 2345.48 2052.07 2307.39 1991.39 2284.2 1955.42 2275.93 1944.15 2270.55 1937.06 2265.14 1931.92 2259.69 1928.7 2254.25 1925.49 2242.87 1921.65 2225.55 1917.19ZM2063.27 1902.63C2097.03 1904.07 2122.32 1904.79 2139.13 1904.79 2157.13 1904.79 2181.3 1904.07 2211.64 1902.63L2211.64 1917.19 2204.36 1918.17C2186.91 1920.27 2176.45 1922.9 2172.98 1926.04 2169.5 1929.19 2167.76 1935.29 2167.76 1944.34L2167.76 1951.43 2167.37 2017.35 2167.56 2092.71 2167.76 2131.09C2167.76 2142.37 2168.32 2149.45 2169.43 2152.34 2170.55 2155.22 2172.48 2157.39 2175.24 2158.83 2179.96 2161.32 2189.67 2163.75 2204.36 2166.11 2205.94 2166.38 2208.36 2166.77 2211.64 2167.29L2211.64 2181.85C2184.75 2180.41 2161.07 2179.69 2140.61 2179.69 2121.19 2179.69 2095.48 2180.41 2063.47 2181.85L2063.47 2167.29C2083.84 2163.49 2095.01 2161.19 2096.97 2160.41 2099.97 2159.23 2102.26 2157.52 2103.82 2155.29 2105.78 2152.27 2106.83 2146.11 2106.96 2136.79 2107.22 2115.02 2107.35 2077.96 2107.35 2025.61L2106.76 1953.99 2106.76 1948.08C2106.76 1937.59 2105.25 1930.83 2102.23 1927.82 2099.22 1924.8 2089.05 1921.85 2071.73 1918.96 2069.77 1918.57 2066.95 1917.98 2063.27 1917.19ZM1907.27 1902.63C1941.03 1904.07 1966.32 1904.79 1983.13 1904.79 2001.13 1904.79 2025.3 1904.07 2055.64 1902.63L2055.64 1917.19 2048.36 1918.17C2030.91 1920.27 2020.45 1922.9 2016.98 1926.04 2013.5 1929.19 2011.76 1935.29 2011.76 1944.34L2011.76 1951.43 2011.37 2017.35 2011.56 2092.71 2011.76 2131.09C2011.76 2142.37 2012.32 2149.45 2013.43 2152.34 2014.55 2155.22 2016.48 2157.39 2019.24 2158.83 2023.96 2161.32 2033.67 2163.75 2048.36 2166.11 2049.94 2166.38 2052.36 2166.77 2055.64 2167.29L2055.64 2181.85C2028.75 2180.41 2005.07 2179.69 1984.61 2179.69 1965.19 2179.69 1939.48 2180.41 1907.47 2181.85L1907.47 2167.29C1927.84 2163.49 1939.01 2161.19 1940.97 2160.41 1943.97 2159.23 1946.26 2157.52 1947.82 2155.29 1949.78 2152.27 1950.83 2146.11 1950.96 2136.79 1951.22 2115.02 1951.35 2077.96 1951.35 2025.61L1950.76 1953.99 1950.76 1948.08C1950.76 1937.59 1949.25 1930.83 1946.23 1927.82 1943.22 1924.8 1933.05 1921.85 1915.73 1918.96 1913.77 1918.57 1910.95 1917.98 1907.27 1917.19ZM1752.27 1902.63C1786.03 1904.07 1811.32 1904.79 1828.13 1904.79 1846.13 1904.79 1870.3 1904.07 1900.64 1902.63L1900.64 1917.19 1893.36 1918.17C1875.91 1920.27 1865.45 1922.9 1861.98 1926.04 1858.5 1929.19 1856.76 1935.29 1856.76 1944.34L1856.76 1951.43 1856.37 2017.35 1856.56 2092.71 1856.76 2131.09C1856.76 2142.37 1857.32 2149.45 1858.43 2152.34 1859.55 2155.22 1861.48 2157.39 1864.24 2158.83 1868.96 2161.32 1878.67 2163.75 1893.36 2166.11 1894.94 2166.38 1897.36 2166.77 1900.64 2167.29L1900.64 2181.85C1873.75 2180.41 1850.07 2179.69 1829.61 2179.69 1810.19 2179.69 1784.48 2180.41 1752.47 2181.85L1752.47 2167.29C1772.84 2163.49 1784.01 2161.19 1785.97 2160.41 1788.97 2159.23 1791.26 2157.52 1792.82 2155.29 1794.78 2152.27 1795.83 2146.11 1795.96 2136.79 1796.22 2115.02 1796.35 2077.96 1796.35 2025.61L1795.76 1953.99 1795.76 1948.08C1795.76 1937.59 1794.25 1930.83 1791.23 1927.82 1788.22 1924.8 1778.05 1921.85 1760.73 1918.96 1758.77 1918.57 1755.95 1917.98 1752.27 1917.19ZM3339.71 1896.72 3355.45 1896.72C3367.65 1927.55 3392.9 1985.06 3431.21 2069.26 3452.46 2116.09 3465.19 2142.71 3469.38 2149.14 3472.27 2153.61 3475.16 2156.77 3478.04 2158.61 3480.93 2160.45 3490.05 2163.35 3505.39 2167.29L3505.39 2181.85C3482.17 2180.41 3460.59 2179.69 3440.65 2179.69 3420.98 2179.69 3396.38 2180.41 3366.86 2181.85L3366.86 2167.29C3382.73 2164.4 3391.91 2162.03 3394.4 2160.19 3396.9 2158.35 3398.14 2155.85 3398.14 2152.69 3398.14 2150.85 3397.75 2148.75 3396.96 2146.38 3394.87 2140.85 3388.06 2124.28 3376.54 2096.65 3358.08 2096.26 3342.69 2096.06 3330.39 2096.06 3320.31 2096.06 3303.48 2096.26 3279.92 2096.65 3265.21 2131.12 3257.85 2149.99 3257.85 2153.28 3257.85 2156.44 3258.9 2158.78 3261 2160.29 3263.1 2161.8 3272.41 2164.14 3288.94 2167.29L3288.94 2181.85C3272.41 2180.41 3256.6 2179.69 3241.52 2179.69 3225.25 2179.69 3208.72 2180.41 3191.93 2181.85L3191.93 2167.29C3203.73 2164.79 3211.87 2161.97 3216.33 2158.81 3219.35 2156.7 3222.1 2153.55 3224.59 2149.34 3229.72 2141.07 3245.03 2109.07 3270.52 2053.33 3286.68 2018.05 3309.75 1965.84 3339.71 1896.72Z" stroke="#FFFFFF" stroke-width="5" stroke-linejoin="round" stroke-miterlimit="10" fill="#FFFFFF" fill-rule="evenodd"/><text fill="#000000" fill-opacity="0" font-family="Arial,Arial_MSFontService,sans-serif" font-size="285.13" x="1752.27" y="2146.21">IIIXR LAB</text></g></svg>