<svg width="3095" height="902" xmlns="http://www.w3.org/2000/svg" xmlns:xlink="http://www.w3.org/1999/xlink" overflow="hidden"><defs><clipPath id="clip0"><rect x="391" y="640" width="3095" height="902"/></clipPath></defs><g clip-path="url(#clip0)" transform="translate(-391 -640)"><path d="M848.707 1215.58C841.754 1215.58 828.045 1216.36 807.58 1217.94L806.4 1327.35C820.043 1328.79 830.603 1329.51 838.081 1329.51 861.956 1329.51 879.634 1324.19 891.112 1313.54 902.591 1302.9 908.33 1288.12 908.33 1269.19 908.33 1252.63 903.247 1239.56 893.08 1229.97 882.913 1220.37 868.122 1215.58 848.707 1215.58ZM723.95 1195.31C758.714 1196.75 786.591 1197.47 807.58 1197.47 819.649 1197.47 830.931 1197.34 841.426 1197.08 855.332 1196.55 864.974 1196.29 870.352 1196.29 895.933 1196.29 915.218 1202.33 928.205 1214.4 941.061 1226.6 947.489 1243.07 947.489 1263.8 947.489 1277.7 944.569 1290 938.728 1300.7 932.887 1311.39 924.455 1320.41 913.431 1327.76 905.425 1333.01 894.007 1337.67 879.177 1341.73L944.719 1427.12C952.854 1437.75 957.972 1443.97 960.07 1445.81 963.352 1448.56 967.617 1450.93 972.864 1452.89 980.213 1455.78 992.613 1459.12 1010.06 1462.93L1010.06 1474.54C989.337 1473.09 974.251 1472.37 964.805 1472.37 953.917 1472.37 942.766 1473.09 931.353 1474.54 925.45 1464.7 917.448 1452.33 907.346 1437.44 897.245 1422.55 891.08 1413.73 888.849 1410.98 887.538 1409.4 886.291 1407.76 885.111 1406.06L841.82 1346.63C830.144 1346.37 818.338 1345.52 806.4 1344.07L807.974 1443.25C808.236 1447.18 809.417 1450.14 811.516 1452.1 814.664 1454.73 824.503 1457.55 841.033 1460.56 843.394 1460.96 847.001 1461.74 851.855 1462.93L851.855 1474.54C828.111 1473.09 807.187 1472.37 789.083 1472.37 769.668 1472.37 747.957 1473.09 723.95 1474.54L723.95 1462.93 732.411 1461.15C751.171 1457.61 761.83 1454.69 764.388 1452.4 766.946 1450.1 768.422 1446 768.815 1440.1 769.078 1436.3 769.406 1402.58 769.799 1338.96L769.012 1246.47C768.881 1232.3 768.52 1224.17 767.93 1222.07 767.339 1219.97 766.06 1218.4 764.093 1217.35 757.665 1213.94 747.498 1211.12 733.592 1208.89 731.493 1208.49 728.279 1207.84 723.95 1206.92Z" stroke="#4472C4" stroke-width="5" stroke-linejoin="round" stroke-miterlimit="10" fill="#4472C4" fill-rule="evenodd"/><text fill="#000000" fill-opacity="0" font-family="Arial,Arial_MSFontService,sans-serif" font-size="279.227" x="723.95" y="1439.63">R</text><path d="M713.22 934.356C739.216 935.537 759.573 936.128 774.289 936.128 790.08 936.128 809.47 935.537 832.458 934.356L832.458 946.28C819.496 948.527 811.836 950.507 809.479 952.219 807.658 953.503 806.748 955.161 806.748 957.194 806.748 959.554 807.339 961.859 808.523 964.11 811.534 969.687 822.935 987.758 842.726 1018.32 873.049 980.596 888.21 959.482 888.21 954.981 888.21 953.692 887.539 952.617 886.196 951.758 884.853 950.899 876.824 949.073 862.107 946.28L862.107 934.356C884.021 935.537 898.845 936.128 906.579 936.128 911.951 936.128 926.345 935.537 949.763 934.356L949.763 946.28C939.352 948.002 931.945 949.965 927.544 952.171 923.143 954.376 919.172 957.254 915.631 960.804 914.234 962.306 902.682 975.995 880.974 1001.87 868.294 1017.01 859.213 1028.28 853.733 1035.69 868.795 1059.96 887.085 1088.3 908.601 1120.73 915.785 1131.49 921.494 1138.33 925.729 1141.23 929.964 1144.14 939.264 1147.42 953.63 1151.08L953.63 1163C932.038 1161.82 911.951 1161.23 893.367 1161.23 874.997 1161.23 856.521 1161.82 837.937 1163L837.937 1151.08C849.753 1148.61 856.897 1146.46 859.368 1144.63 861.086 1143.34 861.946 1141.89 861.946 1140.28 861.946 1138.78 861.354 1136.93 860.171 1134.73 858.987 1132.53 846.4 1112.39 822.408 1074.3 809.749 1089.1 794.73 1108.31 777.351 1131.9 774.128 1136.2 772.517 1139.26 772.517 1141.09 772.517 1142.81 773.323 1144.2 774.934 1145.28 777.297 1146.78 785.622 1148.72 799.91 1151.08L799.91 1163C781.218 1161.82 765.749 1161.23 753.503 1161.23 740.505 1161.23 725.627 1161.82 708.87 1163L708.87 1151.08C720.793 1149.36 728.367 1147.75 731.589 1146.25 736.316 1143.99 741.472 1139.96 747.058 1134.16 756.521 1124.48 777.975 1098.67 811.42 1056.73 780.229 1007.04 761.246 977.583 754.47 968.355 750.066 962.554 745.635 958.338 741.177 955.706 736.719 953.074 727.4 949.932 713.22 946.28Z" stroke="#4472C4" stroke-width="5" stroke-linejoin="round" stroke-miterlimit="10" fill="#4472C4" fill-rule="evenodd"/><text fill="#000000" fill-opacity="0" font-family="Arial,Arial_MSFontService,sans-serif" font-size="228.647" x="708.87" y="1134.42">X</text><path d="M986.064 1006.86C977.133 985.262 969.856 968.53 964.235 956.669 957.968 943.446 950.314 928.679 941.275 912.366L949.866 908.294C952.253 911.323 953.983 913.594 955.056 915.106 963.408 926.959 969.062 933.432 972.018 934.528 974.974 935.623 979.898 934.537 986.79 931.271L991.886 928.855 1050.76 901.84 1135.59 861.101C1142.39 857.88 1146.23 854.838 1147.14 851.974 1148.04 849.109 1146.41 841.531 1142.24 829.238 1141.48 826.868 1140.52 823.34 1139.37 818.655L1147.96 814.583C1154.3 830.717 1160.9 846.016 1167.75 860.48 1174.84 875.429 1183.15 891.581 1192.68 908.936L1184.09 913.007C1181.98 910.56 1180.48 908.655 1179.6 907.291 1170.83 894.565 1165.03 887.656 1162.19 886.563 1159.36 885.47 1154.1 886.741 1146.44 890.376L1139.29 894.117 1085.65 919.008C1030.71 945.049 1000.39 959.595 994.707 962.647 991.595 964.357 989.612 966.569 988.758 969.282 987.903 971.995 989.286 980.305 992.906 994.212 993.342 996.136 993.925 998.996 994.655 1002.79Z" stroke="#4472C4" stroke-width="5" stroke-linejoin="round" stroke-miterlimit="10" fill="#4472C4" fill-rule="evenodd"/><text fill="#000000" fill-opacity="0" font-family="Arial,Arial_MSFontService,sans-serif" font-size="192.281" x="941.275" y="982.829">I</text><path d="M671.36 918.09C678.544 940.335 684.466 957.592 689.126 969.863 694.322 983.542 700.776 998.872 708.489 1015.85L699.601 1019.23C697.463 1016.02 695.919 1013.62 694.969 1012.02 687.587 999.545 682.466 992.642 679.607 991.315 676.747 989.988 671.752 990.678 664.622 993.386L659.35 995.388 598.509 1017.63 510.709 1051.5C503.68 1054.17 499.602 1056.89 498.476 1059.67 497.349 1062.46 498.372 1070.14 501.543 1082.73 502.118 1085.15 502.794 1088.74 503.568 1093.51L494.68 1096.88C489.645 1080.29 484.285 1064.52 478.603 1049.56 472.729 1034.09 465.731 1017.33 457.609 999.27L466.496 995.895C468.406 998.502 469.747 1000.52 470.52 1001.95 478.246 1015.33 483.478 1022.68 486.218 1024 488.959 1025.31 494.295 1024.46 502.229 1021.45L509.646 1018.29 565.101 997.745C621.94 976.158 653.316 964.07 659.227 961.48 662.465 960.022 664.618 957.975 665.685 955.339 666.752 952.703 666.035 944.309 663.533 930.158 663.251 928.205 662.898 925.308 662.473 921.466Z" stroke="#4472C4" stroke-width="5" stroke-linejoin="round" stroke-miterlimit="10" fill="#4472C4" fill-rule="evenodd"/><text fill="#000000" fill-opacity="0" font-family="Arial,Arial_MSFontService,sans-serif" font-size="178.791" x="457.609" y="1074.53">I</text><path d="M790.976 753.396C809.405 754.184 823.21 754.578 832.389 754.578 842.212 754.578 855.406 754.184 871.972 753.396L871.972 761.345 867.997 761.883C858.473 763.028 852.761 764.461 850.863 766.179 848.966 767.898 848.017 771.228 848.017 776.17L848.017 780.037 847.802 816.023 847.909 857.166 848.017 878.113C848.017 884.272 848.321 888.139 848.93 889.715 849.539 891.29 850.595 892.472 852.099 893.259 854.677 894.62 859.976 895.945 867.997 897.234 868.857 897.377 870.182 897.592 871.972 897.879L871.972 905.828C857.291 905.04 844.364 904.646 833.193 904.646 822.594 904.646 808.557 905.04 791.083 905.828L791.083 897.879C802.205 895.802 808.3 894.549 809.37 894.119 811.009 893.474 812.257 892.543 813.113 891.326 814.182 889.679 814.752 886.313 814.823 881.228 814.967 869.34 815.038 849.109 815.038 820.535L814.716 781.433 814.716 778.211C814.716 772.481 813.892 768.793 812.245 767.146 810.598 765.499 805.048 763.888 795.595 762.312 794.521 762.097 792.981 761.775 790.976 761.345Z" stroke="#4472C4" stroke-width="5" stroke-linejoin="round" stroke-miterlimit="10" fill="#4472C4" fill-rule="evenodd"/><text fill="#000000" fill-opacity="0" font-family="Arial,Arial_MSFontService,sans-serif" font-size="152.432" x="790.976" y="886.774">I</text><path d="M405 1091C405 849.652 600.875 654 842.5 654 1084.12 654 1280 849.652 1280 1091 1280 1332.35 1084.12 1528 842.5 1528 600.875 1528 405 1332.35 405 1091Z" stroke="#4472C4" stroke-width="27.5" stroke-miterlimit="8" fill="none" fill-rule="evenodd"/><path d="M843 1528 3471.9 1528" stroke="#4472C4" stroke-width="27.5" stroke-miterlimit="8" fill="none" fill-rule="evenodd"/><path d="M3218.88 1102.65 3218.88 1214.02C3227.67 1215.6 3235.74 1216.38 3243.08 1216.38 3261.06 1216.38 3274.6 1211.56 3283.72 1201.92 3292.84 1192.28 3297.39 1177.36 3297.39 1157.15 3297.39 1136.43 3292.21 1122.16 3281.85 1114.35 3271.48 1106.55 3253.84 1102.65 3228.92 1102.65ZM2937.12 1038.92 2896.89 1131.57 2935.87 1131.77C2945.19 1131.77 2958.57 1131.7 2976.03 1131.57ZM2259.98 984.58C2254.19 984.58 2246.7 985.039 2237.49 985.958L2237.68 1088.87C2244.26 1089.13 2249.13 1089.27 2252.29 1089.27 2270.71 1089.27 2284.29 1084.9 2293.04 1076.18 2301.79 1067.46 2306.16 1054.17 2306.16 1036.33 2306.16 1019.54 2302.02 1006.72 2293.73 997.863 2285.44 989.008 2274.19 984.58 2259.98 984.58ZM3242.69 981.432C3236.26 981.432 3228.32 982.088 3218.88 983.399L3218.88 1082.18 3228.72 1082.18C3250.23 1082.18 3265.84 1077.66 3275.55 1068.6 3285.26 1059.55 3290.11 1046.17 3290.11 1028.46 3290.11 1013.11 3286.08 1001.44 3278.01 993.435 3269.94 985.433 3258.17 981.432 3242.69 981.432ZM3115.97 959.983C3147.84 961.426 3174.74 962.147 3196.64 962.147 3205.17 962.147 3219.14 961.885 3238.56 961.36 3247.74 961.098 3256.2 960.967 3263.94 960.967 3291.75 960.967 3311.82 965.099 3324.16 973.364 3340.42 984.121 3348.56 999.929 3348.56 1020.79 3348.56 1038.89 3342.39 1054.04 3330.06 1066.24 3320.88 1075.56 3306.84 1083.17 3287.95 1089.07 3304.74 1090.38 3318.25 1093.37 3328.48 1098.02 3338.72 1102.68 3346.69 1109.73 3352.39 1119.18 3358.1 1128.62 3360.95 1139.71 3360.95 1152.43 3360.95 1168.04 3356.53 1182.6 3347.67 1196.12 3338.82 1209.63 3325.53 1220.06 3307.82 1227.4 3290.11 1234.75 3267.35 1238.42 3239.54 1238.42 3232.06 1238.42 3222.62 1238.23 3211.21 1237.83 3196.51 1237.18 3186.48 1236.85 3181.1 1236.85 3171.13 1236.85 3149.42 1237.64 3115.97 1239.21L3115.97 1224.65 3148.83 1217.56C3151.71 1216.65 3153.88 1215.47 3155.32 1214.02 3156.76 1212.58 3157.88 1210.61 3158.67 1208.12 3159.72 1204.05 3160.33 1192.57 3160.5 1173.68 3160.85 1140.62 3161.03 1109.86 3161.03 1081.39 3161.03 1065.52 3160.63 1040.6 3159.85 1006.62 3159.58 996.518 3158.4 989.762 3156.3 986.351 3155.12 984.515 3153.09 983.006 3150.2 981.825 3149.02 981.3 3137.61 978.874 3115.97 974.544ZM2531.95 959.983C2565.49 961.426 2591.63 962.147 2610.36 962.147 2629.49 962.147 2654.98 961.426 2686.81 959.983L2686.81 974.544C2659.79 978.611 2645.1 981.235 2642.73 982.416 2638.8 984.646 2636.83 990.352 2636.83 999.535L2636.04 1050.11 2636.04 1213.83 2707.85 1213.83C2719.69 1213.83 2727.58 1213.04 2731.53 1211.46 2736.92 1209.23 2742.11 1205.23 2747.11 1199.46 2752.11 1193.69 2760.92 1180.31 2773.55 1159.32L2791.3 1159.32C2782.51 1183.59 2773.92 1210.22 2765.52 1239.21 2709.77 1237.77 2663.4 1237.05 2626.4 1237.05 2596.1 1237.05 2564.61 1237.77 2531.95 1239.21L2531.95 1224.65C2555.2 1220.06 2567.99 1216.91 2570.35 1215.2 2572.7 1213.5 2574.17 1210.32 2574.75 1205.66 2575.34 1201 2575.63 1169.55 2575.63 1111.3L2575.44 1039.68 2575.44 1027.08C2575.44 1006.09 2574.72 993.501 2573.28 989.303 2572.24 986.154 2570.44 983.957 2567.89 982.711 2565.35 981.464 2553.37 978.742 2531.95 974.544ZM2135.56 959.983C2179.93 961.426 2206.13 962.147 2214.14 962.147 2222.67 962.147 2235.01 961.918 2251.16 961.459 2267.31 961 2279.19 960.77 2286.81 960.77 2306.37 960.77 2321.6 963.263 2332.5 968.248 2343.4 973.233 2352.16 981.169 2358.79 992.058 2365.42 1002.95 2368.74 1015.08 2368.74 1028.46 2368.74 1039.87 2366.38 1050.86 2361.65 1061.42 2356.93 1071.98 2350.63 1080.94 2342.76 1088.28 2337.65 1093.14 2329.45 1098.38 2318.17 1104.02 2327.09 1119.37 2340.14 1141.08 2357.32 1169.16 2369.9 1189.75 2378.12 1202.08 2381.98 1206.15 2385.84 1210.22 2389.99 1213.37 2394.43 1215.6 2401.24 1218.75 2413.66 1221.76 2431.71 1224.65L2431.71 1239.21C2409.43 1237.77 2391.28 1237.05 2377.26 1237.05 2362.45 1237.05 2344.24 1237.77 2322.62 1239.21 2306.63 1202.35 2286.13 1160.17 2261.1 1112.68 2253.56 1112.42 2245.69 1111.9 2237.49 1111.11L2238.27 1192.97C2238.54 1203.07 2239.39 1209.33 2240.83 1211.76 2242.27 1214.19 2244.31 1215.92 2246.93 1216.97 2248.77 1217.89 2260.51 1220.45 2282.15 1224.65L2282.15 1239.21C2251.55 1237.77 2226.98 1237.05 2208.46 1237.05 2190.2 1237.05 2165.9 1237.77 2135.56 1239.21L2135.56 1224.65C2157.75 1220.58 2170.26 1217.43 2173.07 1215.2 2175.87 1212.97 2177.67 1208.58 2178.45 1202.02 2178.85 1198.48 2179.11 1164.83 2179.24 1101.07L2179.06 1042.43C2179.06 1014.88 2178.6 998.289 2177.67 992.648 2176.88 988.581 2175.07 985.531 2172.25 983.498 2169.43 981.464 2160.15 979.07 2144.41 976.315L2135.56 974.544ZM1833.41 959.983C1865.16 961.426 1890.02 962.147 1907.99 962.147 1927.27 962.147 1950.95 961.426 1979.03 959.983L1979.03 974.544C1963.2 977.289 1953.84 979.707 1950.96 981.798 1948.74 983.366 1947.63 985.391 1947.63 987.873 1947.63 990.755 1948.35 993.57 1949.79 996.319 1953.47 1003.13 1967.4 1025.2 1991.56 1062.52 2028.6 1016.45 2047.11 990.668 2047.11 985.17 2047.11 983.596 2046.29 982.284 2044.65 981.235 2043.01 980.185 2033.21 977.955 2015.23 974.544L2015.23 959.983C2041.99 961.426 2060.1 962.147 2069.54 962.147 2076.1 962.147 2093.68 961.426 2122.28 959.983L2122.28 974.544C2109.56 976.648 2100.52 979.046 2095.15 981.739 2089.77 984.432 2084.92 987.947 2080.6 992.282 2078.89 994.117 2064.78 1010.83 2038.27 1042.43 2022.79 1060.92 2011.7 1074.69 2005.01 1083.73 2023.4 1113.37 2045.74 1147.99 2072.01 1187.59 2080.79 1200.73 2087.76 1209.08 2092.93 1212.62 2098.1 1216.17 2109.46 1220.18 2127 1224.65L2127 1239.21C2100.63 1237.77 2076.1 1237.05 2053.41 1237.05 2030.97 1237.05 2008.41 1237.77 1985.72 1239.21L1985.72 1224.65C2000.15 1221.63 2008.87 1219.01 2011.89 1216.78 2013.99 1215.2 2015.04 1213.43 2015.04 1211.46 2015.04 1209.63 2014.31 1207.37 2012.87 1204.68 2011.42 1202 1996.05 1177.4 1966.75 1130.89 1951.29 1148.96 1932.95 1172.41 1911.73 1201.23 1907.79 1206.48 1905.82 1210.22 1905.82 1212.45 1905.82 1214.55 1906.81 1216.25 1908.78 1217.56 1911.66 1219.4 1921.83 1221.76 1939.28 1224.65L1939.28 1239.21C1916.45 1237.77 1897.56 1237.05 1882.6 1237.05 1866.73 1237.05 1848.56 1237.77 1828.1 1239.21L1828.1 1224.65C1842.66 1222.55 1851.91 1220.58 1855.84 1218.75 1861.62 1215.99 1867.91 1211.07 1874.73 1203.99 1886.29 1192.17 1912.49 1160.64 1953.33 1109.42 1915.24 1048.75 1892.06 1012.77 1883.79 1001.5 1878.41 994.419 1873 989.27 1867.55 986.056 1862.11 982.842 1850.73 979.005 1833.41 974.544ZM1671.13 959.983C1704.89 961.426 1730.18 962.147 1746.99 962.147 1764.99 962.147 1789.16 961.426 1819.5 959.983L1819.5 974.544 1812.22 975.528C1794.77 977.627 1784.31 980.251 1780.83 983.399 1777.36 986.548 1775.62 992.648 1775.62 1001.7L1775.62 1008.78 1775.22 1074.7 1775.42 1150.07 1775.62 1188.44C1775.62 1199.72 1776.18 1206.81 1777.29 1209.69 1778.41 1212.58 1780.34 1214.74 1783.1 1216.19 1787.82 1218.68 1797.53 1221.11 1812.22 1223.47 1813.79 1223.73 1816.22 1224.12 1819.5 1224.65L1819.5 1239.21C1792.61 1237.77 1768.93 1237.05 1748.46 1237.05 1729.05 1237.05 1703.34 1237.77 1671.33 1239.21L1671.33 1224.65C1691.7 1220.84 1702.87 1218.55 1704.82 1217.76 1707.83 1216.58 1710.11 1214.88 1711.68 1212.65 1713.64 1209.63 1714.68 1203.46 1714.81 1194.15 1715.08 1172.37 1715.21 1135.31 1715.21 1082.97L1714.62 1011.34 1714.62 1005.44C1714.62 994.944 1713.11 988.188 1710.09 985.17 1707.07 982.153 1696.91 979.202 1679.59 976.315 1677.62 975.922 1674.8 975.332 1671.13 974.544ZM1515.13 959.983C1548.89 961.426 1574.18 962.147 1590.99 962.147 1608.99 962.147 1633.16 961.426 1663.5 959.983L1663.5 974.544 1656.22 975.528C1638.77 977.627 1628.31 980.251 1624.83 983.399 1621.36 986.548 1619.62 992.648 1619.62 1001.7L1619.62 1008.78 1619.22 1074.7 1619.42 1150.07 1619.62 1188.44C1619.62 1199.72 1620.18 1206.81 1621.29 1209.69 1622.41 1212.58 1624.34 1214.74 1627.1 1216.19 1631.82 1218.68 1641.53 1221.11 1656.22 1223.47 1657.79 1223.73 1660.22 1224.12 1663.5 1224.65L1663.5 1239.21C1636.61 1237.77 1612.93 1237.05 1592.46 1237.05 1573.05 1237.05 1547.34 1237.77 1515.33 1239.21L1515.33 1224.65C1535.7 1220.84 1546.87 1218.55 1548.82 1217.76 1551.83 1216.58 1554.11 1214.88 1555.68 1212.65 1557.64 1209.63 1558.68 1203.46 1558.81 1194.15 1559.08 1172.37 1559.21 1135.31 1559.21 1082.97L1558.62 1011.34 1558.62 1005.44C1558.62 994.944 1557.11 988.188 1554.09 985.17 1551.07 982.153 1540.91 979.202 1523.59 976.315 1521.62 975.922 1518.8 975.332 1515.13 974.544ZM1360.13 959.983C1393.89 961.426 1419.18 962.147 1435.99 962.147 1453.99 962.147 1478.16 961.426 1508.5 959.983L1508.5 974.544 1501.22 975.528C1483.77 977.627 1473.31 980.251 1469.83 983.399 1466.36 986.548 1464.62 992.648 1464.62 1001.7L1464.62 1008.78 1464.22 1074.7 1464.42 1150.07 1464.62 1188.44C1464.62 1199.72 1465.18 1206.81 1466.29 1209.69 1467.41 1212.58 1469.34 1214.74 1472.1 1216.19 1476.82 1218.68 1486.53 1221.11 1501.22 1223.47 1502.79 1223.73 1505.22 1224.12 1508.5 1224.65L1508.5 1239.21C1481.61 1237.77 1457.93 1237.05 1437.46 1237.05 1418.05 1237.05 1392.34 1237.77 1360.33 1239.21L1360.33 1224.65C1380.7 1220.84 1391.87 1218.55 1393.82 1217.76 1396.83 1216.58 1399.11 1214.88 1400.68 1212.65 1402.64 1209.63 1403.68 1203.46 1403.81 1194.15 1404.08 1172.37 1404.21 1135.31 1404.21 1082.97L1403.62 1011.34 1403.62 1005.44C1403.62 994.944 1402.11 988.188 1399.09 985.17 1396.07 982.153 1385.91 979.202 1368.59 976.315 1366.62 975.922 1363.8 975.332 1360.13 974.544ZM2947.56 954.08 2963.31 954.08C2975.51 984.902 3000.76 1042.42 3039.07 1126.62 3060.32 1173.44 3073.04 1200.07 3077.24 1206.5 3080.13 1210.97 3083.01 1214.13 3085.9 1215.97 3088.78 1217.81 3097.9 1220.7 3113.25 1224.65L3113.25 1239.21C3090.03 1237.77 3068.45 1237.05 3048.51 1237.05 3028.83 1237.05 3004.24 1237.77 2974.72 1239.21L2974.72 1224.65C2990.59 1221.75 2999.77 1219.39 3002.26 1217.55 3004.75 1215.71 3006 1213.21 3006 1210.05 3006 1208.21 3005.6 1206.1 3004.82 1203.73 3002.72 1198.21 2995.91 1181.63 2984.39 1154.01 2965.93 1153.61 2950.55 1153.42 2938.24 1153.42 2928.16 1153.42 2911.34 1153.61 2887.78 1154.01 2873.06 1188.47 2865.7 1207.35 2865.7 1210.64 2865.7 1213.8 2866.75 1216.13 2868.85 1217.64 2870.95 1219.16 2880.27 1221.49 2896.8 1224.65L2896.8 1239.21C2880.27 1237.77 2864.46 1237.05 2849.37 1237.05 2833.11 1237.05 2816.58 1237.77 2799.78 1239.21L2799.78 1224.65C2811.59 1222.15 2819.72 1219.32 2824.18 1216.16 2827.2 1214.06 2829.96 1210.9 2832.45 1206.69 2837.57 1198.43 2852.88 1166.43 2878.38 1110.68 2894.54 1075.4 2917.6 1023.2 2947.56 954.08Z" stroke="#4472C4" stroke-width="5" stroke-linejoin="round" stroke-miterlimit="10" fill="#4472C4" fill-rule="evenodd"/><text fill="#000000" fill-opacity="0" font-family="Arial,Arial_MSFontService,sans-serif" font-size="285.13" x="1360.13" y="1203.57">IIIXR LAB</text></g></svg>