{
  "accessors": [
    {
      "bufferView": 1,
      "componentType": 5126,
      "count": 65532,
      "max": [
        62.58232116699219,
        176.26614379882812,
        39.370216369628906
      ],
      "min": [
        -44.38785171508789,
        0.05722897872328758,
        -37.90703582763672
      ],
      "type": "VEC3"
    },
    {
      "bufferView": 1,
      "byteOffset": 786384,
      "componentType": 5126,
      "count": 65532,
      "max": [
        0.9997039437294006,
        0.9999755024909973,
        1
      ],
      "min": [
        -0.9999285340309143,
        -1,
        -0.9999999403953552
      ],
      "type": "VEC3"
    },
    {
      "bufferView": 2,
      "componentType": 5126,
      "count": 65532,
      "max": [
        0.7333333492279053,
        0.7411764860153198,
        0.7411764860153198,
        1
      ],
      "min": [
        0.2862745225429535,
        0.40784314274787903,
        0.23529411852359772,
        1
      ],
      "type": "VEC4"
    },
    {
      "bufferView": 0,
      "componentType": 5125,
      "count": 351027,
      "type": "SCALAR"
    },
    {
      "bufferView": 1,
      "byteOffset": 1572768,
      "componentType": 5126,
      "count": 65532,
      "max": [
        61.80179977416992,
        176.2646026611328,
        38.823020935058594
      ],
      "min": [
        -62.582237243652344,
        0.1075422614812851,
        -38.6583366394043
      ],
      "type": "VEC3"
    },
    {
      "bufferView": 1,
      "byteOffset": 2359152,
      "componentType": 5126,
      "count": 65532,
      "max": [
        0.9998558163642883,
        0.9989500045776367,
        1
      ],
      "min": [
        -0.9999880194664001,
        -0.9999955892562866,
        -1
      ],
      "type": "VEC3"
    },
    {
      "bufferView": 2,
      "byteOffset": 1048512,
      "componentType": 5126,
      "count": 65532,
      "max": [
        0.7019608020782471,
        0.7372549176216125,
        0.7176470756530762,
        1
      ],
      "min": [
        0.2862745225429535,
        0.40392157435417175,
        0.2666666805744171,
        1
      ],
      "type": "VEC4"
    },
    {
      "bufferView": 0,
      "byteOffset": 1404108,
      "componentType": 5125,
      "count": 349749,
      "type": "SCALAR"
    },
    {
      "bufferView": 1,
      "byteOffset": 3145536,
      "componentType": 5126,
      "count": 53189,
      "max": [
        62.49697494506836,
        176.2353057861328,
        39.23516845703125
      ],
      "min": [
        -62.29426193237305,
        0.05733472481369972,
        -38.6583366394043
      ],
      "type": "VEC3"
    },
    {
      "bufferView": 1,
      "byteOffset": 3783804,
      "componentType": 5126,
      "count": 53189,
      "max": [
        0.9999756813049316,
        0.9974052309989929,
        1
      ],
      "min": [
        -0.9996379017829895,
        -0.9999999403953552,
        -1
      ],
      "type": "VEC3"
    },
    {
      "bufferView": 2,
      "byteOffset": 2097024,
      "componentType": 5126,
      "count": 53189,
      "max": [
        0.7176470756530762,
        0.7411764860153198,
        0.7215686440467834,
        1
      ],
      "min": [
        0.2980392277240753,
        0.4000000059604645,
        0.24705882370471954,
        1
      ],
      "type": "VEC4"
    },
    {
      "bufferView": 0,
      "byteOffset": 2803104,
      "componentType": 5125,
      "count": 202836,
      "type": "SCALAR"
    }
  ],
  "asset": {
    "extras": {
      "author": "Ricardo Rivera (https://sketchfab.com/Ricardo_Rivera)",
      "license": "CC-BY-4.0 (http://creativecommons.org/licenses/by/4.0/)",
      "source": "https://sketchfab.com/3d-models/loz-adventurers-camp-statue-e4a4d094e395466e9e5dded09c765708",
      "title": "LoZ Adventurer's Camp - Statue"
    },
    "generator": "Sketchfab-12.67.0",
    "version": "2.0"
  },
  "bufferViews": [
    {
      "buffer": 0,
      "byteLength": 3614448,
      "name": "floatBufferViews",
      "target": 34963,
      "byteOffset": 0
    },
    {
      "buffer": 0,
      "byteLength": 4422072,
      "byteOffset": 3614448,
      "byteStride": 12,
      "name": "floatBufferViews",
      "target": 34962
    },
    {
      "buffer": 0,
      "byteLength": 2948048,
      "byteOffset": 8036520,
      "byteStride": 16,
      "name": "floatBufferViews",
      "target": 34962
    }
  ],
  "buffers": [
    {
      "uri": "test-statue_data.bin",
      "byteLength": 10984568
    }
  ],
  "materials": [
    {
      "doubleSided": true,
      "name": "Statue",
      "pbrMetallicRoughness": {
        "baseColorFactor": [
          0.5,
          0.5,
          0.5,
          1
        ],
        "metallicFactor": 0,
        "roughnessFactor": 0.8643125057220459
      }
    }
  ],
  "meshes": [
    {
      "name": "Statue_Statue_0",
      "primitives": [
        {
          "attributes": {
            "COLOR_0": 2,
            "NORMAL": 1,
            "POSITION": 0
          },
          "indices": 3,
          "material": 0,
          "mode": 4
        }
      ]
    },
    {
      "name": "Statue_Statue_0",
      "primitives": [
        {
          "attributes": {
            "COLOR_0": 6,
            "NORMAL": 5,
            "POSITION": 4
          },
          "indices": 7,
          "material": 0,
          "mode": 4
        }
      ]
    },
    {
      "name": "Statue_Statue_0",
      "primitives": [
        {
          "attributes": {
            "COLOR_0": 10,
            "NORMAL": 9,
            "POSITION": 8
          },
          "indices": 11,
          "material": 0,
          "mode": 4
        }
      ]
    }
  ],
  "nodes": [
    {
      "children": [
        1
      ],
      "matrix": [
        1,
        0,
        0,
        0,
        0,
        2.220446049250313e-16,
        -1,
        0,
        0,
        1,
        2.220446049250313e-16,
        0,
        0,
        0,
        0,
        1
      ],
      "name": "Sketchfab_model"
    },
    {
      "children": [
        2
      ],
      "matrix": [
        1,
        0,
        0,
        0,
        0,
        0,
        1,
        0,
        0,
        -1,
        0,
        0,
        0,
        0,
        0,
        1
      ],
      "name": "23bbc41133364a65b9b6be4fd49fe2d4.fbx"
    },
    {
      "children": [
        3
      ],
      "name": "RootNode"
    },
    {
      "children": [
        4,
        5,
        6
      ],
      "name": "Statue"
    },
    {
      "mesh": 0,
      "name": "Statue_Statue_0"
    },
    {
      "mesh": 1,
      "name": "Statue_Statue_0"
    },
    {
      "mesh": 2,
      "name": "Statue_Statue_0"
    }
  ],
  "scene": 0,
  "scenes": [
    {
      "name": "Sketchfab_Scene",
      "nodes": [
        0
      ]
    }
  ]
}